<svg width="36" height="36" viewBox="0 0 36 36" fill="none" xmlns="http://www.w3.org/2000/svg">
    <path d="M18.018 3C26.295 3 33.0135 9.72 33.0135 17.997C33.0135 26.2725 26.295 32.9925 18.018 32.9925C9.741 32.9925 3.021 26.2725 3.021 17.997C3.021 9.72 9.741 3 18.018 3ZM15.7335 12.315C15.7335 12.315 13.4805 14.5725 10.851 17.2035C10.6305 17.424 10.521 17.712 10.521 18C10.521 18.288 10.6305 18.5745 10.851 18.795C13.4805 21.426 15.732 23.682 15.732 23.682C15.9495 23.8995 16.2345 24.0075 16.521 24.0075C16.809 24.006 17.097 23.8965 17.3175 23.676C17.7555 23.2365 17.7585 22.527 17.322 22.0905L14.3565 19.125H24.396C25.017 19.125 25.521 18.621 25.521 18C25.521 17.379 25.017 16.875 24.396 16.875H14.3565L17.3235 13.9065C17.7585 13.473 17.754 12.7635 17.3145 12.3255C17.094 12.105 16.806 11.994 16.5195 11.9925C16.2345 11.9925 15.9495 12.099 15.7335 12.315Z" fill="black"/>
</svg>
