<svg width="28" height="29" viewBox="0 0 28 29" fill="none" xmlns="http://www.w3.org/2000/svg">
    <path d="M20.8773 13.7978C19.6698 13.7978 18.6934 14.83 18.6934 16.0955C18.6934 16.3983 18.9292 16.6464 19.217 16.6464C19.5047 16.6464 19.7405 16.3983 19.7405 16.0955C19.7405 15.4355 20.2547 14.8945 20.8821 14.8945C21.1698 14.8945 21.4056 14.6464 21.4056 14.3437C21.4009 14.0409 21.1651 13.7978 20.8773 13.7978Z" fill="black"/>
    <path d="M24.4387 12.2146C24.3113 12.0856 24.1745 11.9615 24.033 11.8424L22.099 10.1154C21.3538 9.55955 20.467 9.2072 19.5047 9.13772L19.6085 9.2469L18.4339 8.0062H18.4245C18.099 7.69355 17.6604 7.5 17.1839 7.5C16.3632 7.5 15.6698 8.06079 15.4339 8.83995C15.1981 8.68114 14.9245 8.58685 14.6273 8.567C14.5802 8.56203 14.5283 8.56203 14.4811 8.56203C14.1462 8.56203 13.8349 8.66625 13.5707 8.83995C13.3302 8.06576 12.6368 7.50496 11.8207 7.50496C11.3443 7.50496 10.9104 7.69355 10.5802 8.01117H10.5707L9.39622 9.25186L9.49999 9.14268C8.53773 9.21216 7.64622 9.56948 6.90566 10.1203L4.9717 11.8474C4.83019 11.9615 4.69339 12.0856 4.56604 12.2196C3.59906 13.2022 3 14.5769 3 16.1005C3 19.0782 5.30188 21.5 8.13207 21.5C10.7453 21.5 12.9104 19.4305 13.2217 16.7655C13.599 16.9938 14.0377 17.1228 14.5 17.1228C14.967 17.1228 15.4009 16.9938 15.7783 16.7655C16.0943 19.4256 18.2547 21.495 20.8679 21.495C23.6981 21.495 26 19.0732 26 16.0955C26.0047 14.572 25.4056 13.1973 24.4387 12.2146ZM8.13207 19.7829C6.19811 19.7829 4.63207 18.1352 4.63207 16.1005C4.63207 14.0658 6.19811 12.4181 8.13207 12.4181C10.066 12.4181 11.6321 14.0658 11.6321 16.1005C11.6368 18.1303 10.066 19.7829 8.13207 19.7829ZM14.5047 15.5943C13.8773 15.5943 13.3679 15.0583 13.3679 14.3983C13.3679 13.7382 13.8773 13.2022 14.5047 13.2022C15.1321 13.2022 15.6415 13.7382 15.6415 14.3983C15.6415 15.0583 15.1321 15.5943 14.5047 15.5943ZM20.8773 19.7829C18.9434 19.7829 17.3773 18.1352 17.3773 16.1005C17.3773 14.0658 18.9434 12.4181 20.8773 12.4181C22.8113 12.4181 24.3773 14.0658 24.3773 16.1005C24.3773 18.1303 22.8113 19.7829 20.8773 19.7829Z" fill="black"/>
    <path d="M8.13207 13.7978C6.92452 13.7978 5.94811 14.83 5.94811 16.0955C5.94811 16.3983 6.18396 16.6464 6.47169 16.6464C6.75943 16.6464 6.99528 16.3983 6.99528 16.0955C6.99528 15.4355 7.50943 14.8945 8.13679 14.8945C8.42452 14.8945 8.66037 14.6464 8.66037 14.3437C8.65565 14.0409 8.41981 13.7978 8.13207 13.7978Z" fill="black"/>
</svg>
