<svg width="28" height="29" viewBox="0 0 28 29" fill="none" xmlns="http://www.w3.org/2000/svg">
    <path d="M24.9488 11.8269C24.8885 11.6412 24.7775 11.476 24.6284 11.3501C24.4792 11.2242 24.2978 11.1426 24.1047 11.1145L17.425 10.143L14.4377 4.08339C14.3513 3.90827 14.2177 3.76083 14.052 3.65773C13.8863 3.55464 13.6951 3.5 13.5 3.5C13.3049 3.5 13.1137 3.55464 12.948 3.65773C12.7823 3.76083 12.6487 3.90827 12.5623 4.08339L9.57522 10.143L2.89531 11.1145C2.70222 11.1426 2.52083 11.2242 2.37165 11.3501C2.22248 11.4759 2.11146 11.6411 2.05117 11.8269C1.99088 12.0126 1.98371 12.2116 2.03048 12.4012C2.07725 12.5908 2.17608 12.7636 2.31581 12.8999L7.1494 17.6159L6.00791 24.2763C5.97492 24.4688 5.9964 24.6667 6.06991 24.8476C6.14342 25.0285 6.26603 25.1853 6.42387 25.3001C6.58172 25.4149 6.7685 25.4832 6.96311 25.4973C7.15771 25.5114 7.35237 25.4706 7.52507 25.3798L13.4999 22.2355L19.4747 25.3798C19.6258 25.4587 19.7937 25.4999 19.9642 25.5C20.541 25.4992 21.0084 25.0309 21.0084 24.4533C21.0084 24.3729 20.9993 24.2945 20.9821 24.2194L19.8505 17.616L24.6841 12.8999C24.8239 12.7636 24.9227 12.5909 24.9695 12.4013C25.0163 12.2116 25.0091 12.0127 24.9488 11.8269Z" fill="black"/>
</svg>
